<svg width="24" height="24" viewBox="0 0 24 24" fill="none" xmlns="http://www.w3.org/2000/svg">
<path fill-rule="evenodd" clip-rule="evenodd" d="M12 2.84375C6.93648 2.84375 2.84375 6.96403 2.84375 12C2.84375 14.4284 3.80842 16.7573 5.52555 18.4744C6.37579 19.3247 7.38517 19.9991 8.49605 20.4593C9.60694 20.9194 10.7976 21.1562 12 21.1562C14.4284 21.1562 16.7573 20.1916 18.4744 18.4744C20.1916 16.7573 21.1562 14.4284 21.1562 12C21.1562 10.7976 20.9194 9.60694 20.4593 8.49605C19.9991 7.38517 19.3247 6.37579 18.4744 5.52555C17.6242 4.67532 16.6148 4.00087 15.5039 3.54073C14.3931 3.08058 13.2024 2.84375 12 2.84375ZM12.2203 5.27931C12.743 6.10377 13.1797 6.99337 13.4942 7.92974C13.5522 8.10231 13.4217 8.28125 13.2333 8.28125H10.7667C10.5783 8.28125 10.4478 8.10231 10.5058 7.92974C10.8203 6.99337 11.257 6.10377 11.7797 5.27931C11.8833 5.11601 12.1167 5.11601 12.2203 5.27931ZM14.8544 5.96537C14.8005 5.84607 14.8302 5.72602 14.8999 5.65015C14.9682 5.57582 15.0733 5.54439 15.185 5.59993C16.2509 6.12969 17.1632 6.91508 17.8444 7.88159C17.9625 8.04918 17.8419 8.28125 17.6212 8.28125H15.8897C15.7614 8.28125 15.6483 8.19384 15.6137 8.0679C15.4157 7.34802 15.1618 6.64505 14.8544 5.96537ZM8.80304 5.60026C8.91475 5.54473 9.02013 5.57627 9.08882 5.65117C9.15895 5.72764 9.18883 5.84838 9.13505 5.96796C8.83067 6.64465 8.57759 7.35031 8.36367 8.0751C8.32761 8.19729 8.21641 8.28125 8.09058 8.28125H6.37584C6.15563 8.28125 6.0349 8.0501 6.15214 7.88253C6.83189 6.91094 7.74406 6.12667 8.80304 5.60026ZM5.011 10.4923C5.03744 10.3692 5.14859 10.2812 5.27842 10.2812H7.62555C7.79378 10.2812 7.92557 10.4287 7.908 10.5984C7.86029 11.0592 7.82812 11.5239 7.82812 12C7.82812 12.6177 7.88229 13.2164 7.95432 13.8125H4.98563L5.07658 13.7898C4.93307 13.2157 4.84375 12.6163 4.84375 12C4.84375 11.484 4.90637 10.9798 5.011 10.4923ZM9.92721 10.5181C9.94474 10.3826 10.0617 10.2812 10.2011 10.2812H13.794C13.9348 10.2812 14.0531 10.3849 14.0701 10.5228C14.1299 11.0074 14.1719 11.5012 14.1719 12C14.1719 12.4996 14.1297 12.9882 14.0698 13.4765C14.0528 13.6148 13.9343 13.7188 13.7933 13.7188H10.2018C10.0622 13.7188 9.94504 13.617 9.92753 13.4812C9.86454 12.9924 9.82812 12.502 9.82812 12C9.82812 11.4987 9.86443 11.0031 9.92721 10.5181ZM16.092 10.5984C16.0744 10.4287 16.2062 10.2812 16.3745 10.2812H18.7216C18.8514 10.2812 18.9626 10.3692 18.989 10.4923C19.0936 10.9798 19.1563 11.484 19.1563 12C19.1563 12.6163 19.0669 13.2157 18.9234 13.7898L19.0144 13.8125H16.0457C16.1177 13.2164 16.1719 12.6177 16.1719 12C16.1719 11.5239 16.1397 11.0592 16.092 10.5984ZM6.1554 16.1184C6.03733 15.9508 6.15799 15.7188 6.37866 15.7188H8.09058C8.21641 15.7188 8.32761 15.8027 8.36367 15.9249C8.57707 16.6479 8.82944 17.3519 9.13284 18.0271C9.18669 18.147 9.15657 18.2679 9.08614 18.3444C9.01715 18.4194 8.91145 18.4507 8.79967 18.3947C7.74545 17.8665 6.83631 17.0849 6.1554 16.1184ZM10.5059 16.0702C10.4479 15.8977 10.5783 15.7188 10.7667 15.7188H13.2333C13.4217 15.7188 13.5521 15.8977 13.4941 16.0702C13.1797 17.0047 12.7432 17.8889 12.2205 18.7117C12.1168 18.875 11.8832 18.875 11.7795 18.7117C11.2568 17.8889 10.8203 17.0047 10.5059 16.0702ZM15.6133 15.9313C15.648 15.8058 15.7608 15.7188 15.8889 15.7188H17.6198C17.8408 15.7188 17.9614 15.9512 17.8428 16.1188C17.159 17.0855 16.2475 17.8671 15.1912 18.3953C15.0793 18.4512 14.9738 18.4198 14.905 18.345C14.8348 18.2686 14.8048 18.1478 14.8588 18.028C15.1623 17.355 15.4138 16.6529 15.6133 15.9313Z" fill="#64748B"/>
</svg>
