<svg width="132" height="40" viewBox="0 0 132 40" fill="none" xmlns="http://www.w3.org/2000/svg">
<g clip-path="url(#clip0_363_912)">
<g clip-path="url(#clip1_363_912)">
<path d="M24.9393 24.948V12.0933C24.9393 12.0878 24.9348 12.0834 24.9294 12.0834H9.96356C8.32397 12.0834 6.99481 13.4125 6.99481 15.0521V27.8672C6.99481 27.8946 7.01696 27.9167 7.04429 27.9167H21.9705C23.6101 27.9167 24.9393 26.5876 24.9393 24.948Z" stroke="#BFF007" stroke-width="3.325"/>
<path d="M24.9393 17.0312V12.1327C24.9393 12.1054 24.9171 12.0833 24.8898 12.0833H17.8802C16.2407 12.0833 14.9115 13.4124 14.9115 15.052V19.9999H21.9705C23.6101 19.9999 24.9393 18.6708 24.9393 17.0312Z" stroke="#BFF007" stroke-width="3.325"/>
<path d="M44.38 27L39.66 20.8V27H36.24V12.96H39.66V19.12L44.34 12.96H48.36L42.92 19.84L48.56 27H44.38ZM49.5053 21.4C49.5053 20.2533 49.7186 19.2467 50.1453 18.38C50.5853 17.5133 51.1786 16.8467 51.9253 16.38C52.672 15.9133 53.5053 15.68 54.4253 15.68C55.212 15.68 55.8986 15.84 56.4853 16.16C57.0853 16.48 57.5453 16.9 57.8653 17.42V15.84H61.2853V27H57.8653V25.42C57.532 25.94 57.0653 26.36 56.4653 26.68C55.8786 27 55.192 27.16 54.4053 27.16C53.4986 27.16 52.672 26.9267 51.9253 26.46C51.1786 25.98 50.5853 25.3067 50.1453 24.44C49.7186 23.56 49.5053 22.5467 49.5053 21.4ZM57.8653 21.42C57.8653 20.5667 57.6253 19.8933 57.1453 19.4C56.6786 18.9067 56.1053 18.66 55.4253 18.66C54.7453 18.66 54.1653 18.9067 53.6853 19.4C53.2186 19.88 52.9853 20.5467 52.9853 21.4C52.9853 22.2533 53.2186 22.9333 53.6853 23.44C54.1653 23.9333 54.7453 24.18 55.4253 24.18C56.1053 24.18 56.6786 23.9333 57.1453 23.44C57.6253 22.9467 57.8653 22.2733 57.8653 21.42ZM65.4795 14.68C64.8795 14.68 64.3862 14.5067 63.9995 14.16C63.6262 13.8 63.4395 13.36 63.4395 12.84C63.4395 12.3067 63.6262 11.8667 63.9995 11.52C64.3862 11.16 64.8795 10.98 65.4795 10.98C66.0662 10.98 66.5462 11.16 66.9195 11.52C67.3062 11.8667 67.4995 12.3067 67.4995 12.84C67.4995 13.36 67.3062 13.8 66.9195 14.16C66.5462 14.5067 66.0662 14.68 65.4795 14.68ZM67.1795 15.84V27H63.7595V15.84H67.1795ZM68.978 21.4C68.978 20.2533 69.1913 19.2467 69.618 18.38C70.058 17.5133 70.6513 16.8467 71.398 16.38C72.1446 15.9133 72.978 15.68 73.898 15.68C74.6846 15.68 75.3713 15.84 75.958 16.16C76.558 16.48 77.018 16.9 77.338 17.42V15.84H80.758V27H77.338V25.42C77.0046 25.94 76.538 26.36 75.938 26.68C75.3513 27 74.6646 27.16 73.878 27.16C72.9713 27.16 72.1446 26.9267 71.398 26.46C70.6513 25.98 70.058 25.3067 69.618 24.44C69.1913 23.56 68.978 22.5467 68.978 21.4ZM77.338 21.42C77.338 20.5667 77.098 19.8933 76.618 19.4C76.1513 18.9067 75.578 18.66 74.898 18.66C74.218 18.66 73.638 18.9067 73.158 19.4C72.6913 19.88 72.458 20.5467 72.458 21.4C72.458 22.2533 72.6913 22.9333 73.158 23.44C73.638 23.9333 74.218 24.18 74.898 24.18C75.578 24.18 76.1513 23.9333 76.618 23.44C77.098 22.9467 77.338 22.2733 77.338 21.42Z" fill="#EBE5FF"/>
<path d="M95.7705 17.48C95.7705 18.2933 95.5838 19.04 95.2105 19.72C94.8371 20.3867 94.2638 20.9267 93.4905 21.34C92.7171 21.7533 91.7571 21.96 90.6105 21.96H88.4905V27H85.0705V12.96H90.6105C91.7305 12.96 92.6771 13.1533 93.4505 13.54C94.2238 13.9267 94.8038 14.46 95.1905 15.14C95.5771 15.82 95.7705 16.6 95.7705 17.48ZM90.3505 19.24C91.0038 19.24 91.4905 19.0867 91.8105 18.78C92.1305 18.4733 92.2905 18.04 92.2905 17.48C92.2905 16.92 92.1305 16.4867 91.8105 16.18C91.4905 15.8733 91.0038 15.72 90.3505 15.72H88.4905V19.24H90.3505ZM102.631 27.16C101.538 27.16 100.551 26.9267 99.6709 26.46C98.8043 25.9933 98.1176 25.3267 97.6109 24.46C97.1176 23.5933 96.8709 22.58 96.8709 21.42C96.8709 20.2733 97.1243 19.2667 97.6309 18.4C98.1376 17.52 98.8309 16.8467 99.7109 16.38C100.591 15.9133 101.578 15.68 102.671 15.68C103.764 15.68 104.751 15.9133 105.631 16.38C106.511 16.8467 107.204 17.52 107.711 18.4C108.218 19.2667 108.471 20.2733 108.471 21.42C108.471 22.5667 108.211 23.58 107.691 24.46C107.184 25.3267 106.484 25.9933 105.591 26.46C104.711 26.9267 103.724 27.16 102.631 27.16ZM102.631 24.2C103.284 24.2 103.838 23.96 104.291 23.48C104.758 23 104.991 22.3133 104.991 21.42C104.991 20.5267 104.764 19.84 104.311 19.36C103.871 18.88 103.324 18.64 102.671 18.64C102.004 18.64 101.451 18.88 101.011 19.36C100.571 19.8267 100.351 20.5133 100.351 21.42C100.351 22.3133 100.564 23 100.991 23.48C101.431 23.96 101.978 24.2 102.631 24.2ZM113.705 17.7C114.105 17.0867 114.605 16.6067 115.205 16.26C115.805 15.9 116.472 15.72 117.205 15.72V19.34H116.265C115.412 19.34 114.772 19.5267 114.345 19.9C113.919 20.26 113.705 20.9 113.705 21.82V27H110.285V15.84H113.705V17.7ZM125.06 24.1V27H123.32C122.08 27 121.113 26.7 120.42 26.1C119.727 25.4867 119.38 24.4933 119.38 23.12V18.68H118.02V15.84H119.38V13.12H122.8V15.84H125.04V18.68H122.8V23.16C122.8 23.4933 122.88 23.7333 123.04 23.88C123.2 24.0267 123.467 24.1 123.84 24.1H125.06Z" fill="#BFF007"/>
</g>
</g>
<defs>
<clipPath id="clip0_363_912">
<rect width="132" height="40" fill="white"/>
</clipPath>
<clipPath id="clip1_363_912">
<rect width="132" height="40" fill="white"/>
</clipPath>
</defs>
</svg>
