<svg width="119" height="32" viewBox="0 0 119 32" fill="none" xmlns="http://www.w3.org/2000/svg">
<path d="M15.7609 31.5217C24.4654 31.5217 31.5217 24.4654 31.5217 15.7609C31.5217 7.05638 24.4654 0 15.7609 0C7.05638 0 0 7.05638 0 15.7609C0 24.4654 7.05638 31.5217 15.7609 31.5217Z" fill="#BFF007"/>
<path d="M40.5352 9.80298V24.0217H38.6504V9.80298H40.5352ZM49.1191 9.80298L43.2109 16.4338L39.8906 19.8811L39.5781 17.8694L42.0781 15.1155L46.8535 9.80298H49.1191ZM47.3027 24.0217L42.0391 17.0881L43.1621 15.594L49.5488 24.0217H47.3027ZM56.4727 11.0627L51.7656 24.0217H49.8418L55.2617 9.80298H56.502L56.4727 11.0627ZM60.418 24.0217L55.7012 11.0627L55.6719 9.80298H56.9121L62.3516 24.0217H60.418ZM60.1738 18.7581V20.301H52.1855V18.7581H60.1738ZM66.2773 9.80298V24.0217H64.3926V9.80298H66.2773ZM75.1445 11.0627L70.4375 24.0217H68.5137L73.9336 9.80298H75.1738L75.1445 11.0627ZM79.0898 24.0217L74.373 11.0627L74.3438 9.80298H75.584L81.0234 24.0217H79.0898ZM78.8457 18.7581V20.301H70.8574V18.7581H78.8457Z" fill="white"/>
<path d="M88.1719 18.4456H84.373V16.9124H88.1719C88.9076 16.9124 89.5033 16.7952 89.959 16.5608C90.4147 16.3264 90.7467 16.0009 90.9551 15.5842C91.1699 15.1676 91.2773 14.6923 91.2773 14.1584C91.2773 13.6702 91.1699 13.2112 90.9551 12.7815C90.7467 12.3518 90.4147 12.0068 89.959 11.7463C89.5033 11.4794 88.9076 11.3459 88.1719 11.3459H84.8125V24.0217H82.9277V9.80298H88.1719C89.2461 9.80298 90.1543 9.98853 90.8965 10.3596C91.6387 10.7307 92.2018 11.245 92.5859 11.9026C92.9701 12.5536 93.1621 13.2991 93.1621 14.1389C93.1621 15.0504 92.9701 15.8284 92.5859 16.4729C92.2018 17.1174 91.6387 17.609 90.8965 17.9475C90.1543 18.2795 89.2461 18.4456 88.1719 18.4456ZM94.6562 18.8557V18.6311C94.6562 17.8694 94.7669 17.163 94.9883 16.512C95.2096 15.8544 95.5286 15.2847 95.9453 14.803C96.362 14.3147 96.8665 13.9371 97.459 13.6702C98.0514 13.3967 98.7155 13.26 99.4512 13.26C100.193 13.26 100.861 13.3967 101.453 13.6702C102.052 13.9371 102.56 14.3147 102.977 14.803C103.4 15.2847 103.722 15.8544 103.943 16.512C104.165 17.163 104.275 17.8694 104.275 18.6311V18.8557C104.275 19.6174 104.165 20.3238 103.943 20.9749C103.722 21.6259 103.4 22.1956 102.977 22.6838C102.56 23.1656 102.055 23.5432 101.463 23.8167C100.877 24.0836 100.213 24.217 99.4707 24.217C98.7285 24.217 98.0612 24.0836 97.4688 23.8167C96.8763 23.5432 96.3685 23.1656 95.9453 22.6838C95.5286 22.1956 95.2096 21.6259 94.9883 20.9749C94.7669 20.3238 94.6562 19.6174 94.6562 18.8557ZM96.4629 18.6311V18.8557C96.4629 19.3831 96.5247 19.8811 96.6484 20.3499C96.7721 20.8121 96.9577 21.2222 97.2051 21.5803C97.459 21.9384 97.7747 22.2216 98.1523 22.4299C98.5299 22.6318 98.9694 22.7327 99.4707 22.7327C99.9655 22.7327 100.398 22.6318 100.77 22.4299C101.147 22.2216 101.46 21.9384 101.707 21.5803C101.954 21.2222 102.14 20.8121 102.264 20.3499C102.394 19.8811 102.459 19.3831 102.459 18.8557V18.6311C102.459 18.1103 102.394 17.6187 102.264 17.1565C102.14 16.6877 101.951 16.2743 101.697 15.9163C101.45 15.5517 101.137 15.2652 100.76 15.0569C100.389 14.8486 99.9525 14.7444 99.4512 14.7444C98.9564 14.7444 98.5202 14.8486 98.1426 15.0569C97.7715 15.2652 97.459 15.5517 97.2051 15.9163C96.9577 16.2743 96.7721 16.6877 96.6484 17.1565C96.5247 17.6187 96.4629 18.1103 96.4629 18.6311ZM108.348 15.1155V24.0217H106.541V13.4553H108.299L108.348 15.1155ZM111.648 13.3967L111.639 15.0764C111.489 15.0439 111.346 15.0243 111.209 15.0178C111.079 15.0048 110.929 14.9983 110.76 14.9983C110.343 14.9983 109.975 15.0634 109.656 15.1936C109.337 15.3238 109.067 15.5061 108.846 15.7405C108.624 15.9749 108.449 16.2548 108.318 16.5803C108.195 16.8993 108.113 17.2509 108.074 17.635L107.566 17.928C107.566 17.29 107.628 16.691 107.752 16.1311C107.882 15.5712 108.081 15.0764 108.348 14.6467C108.615 14.2105 108.953 13.872 109.363 13.6311C109.78 13.3837 110.275 13.26 110.848 13.26C110.978 13.26 111.128 13.2763 111.297 13.3088C111.466 13.3349 111.583 13.3642 111.648 13.3967ZM118.23 13.4553V14.842H112.518V13.4553H118.23ZM114.451 10.887H116.258V21.4045C116.258 21.7626 116.313 22.0328 116.424 22.2151C116.535 22.3974 116.678 22.5178 116.854 22.5764C117.029 22.635 117.218 22.6643 117.42 22.6643C117.57 22.6643 117.726 22.6513 117.889 22.6252C118.058 22.5927 118.185 22.5667 118.27 22.5471L118.279 24.0217C118.136 24.0673 117.947 24.1096 117.713 24.1487C117.485 24.1943 117.208 24.217 116.883 24.217C116.44 24.217 116.033 24.1292 115.662 23.9534C115.291 23.7776 114.995 23.4846 114.773 23.0745C114.559 22.6578 114.451 22.0979 114.451 21.3948V10.887Z" fill="#BFF007"/>
<path d="M8.11279 21.6984L13.3947 13.7755L18.6767 18.0011L23.9587 11.1345" stroke="#2B3600" stroke-linecap="round" stroke-linejoin="round"/>
<path d="M8.1123 20.0856C9.00286 20.0856 9.72533 20.8074 9.72559 21.6979C9.72559 22.5887 9.00302 23.3112 8.1123 23.3112C7.22181 23.311 6.5 22.5885 6.5 21.6979C6.50026 20.8076 7.22197 20.0859 8.1123 20.0856Z" fill="#2B3600" stroke="#2B3600"/>
<path d="M13.394 12.1627C14.2846 12.1627 15.0071 12.8845 15.0073 13.775C15.0073 14.6657 14.2848 15.3883 13.394 15.3883C12.5035 15.388 11.7817 14.6656 11.7817 13.775C11.782 12.8847 12.5037 12.163 13.394 12.1627Z" fill="#2B3600" stroke="#2B3600"/>
<path d="M18.6763 16.3882C19.5668 16.3882 20.2893 17.1101 20.2896 18.0005C20.2896 18.8913 19.567 19.6138 18.6763 19.6138C17.7858 19.6136 17.064 18.8911 17.064 18.0005C17.0642 17.1102 17.7859 16.3885 18.6763 16.3882Z" fill="#2B3600" stroke="#2B3600"/>
<path d="M23.958 9.52173C24.8486 9.52173 25.571 10.2435 25.5713 11.134C25.5713 12.0247 24.8487 12.7473 23.958 12.7473C23.0675 12.7471 22.3457 12.0246 22.3457 11.134C22.346 10.2437 23.0677 9.52199 23.958 9.52173Z" fill="#2B3600" stroke="#2B3600"/>
</svg>
