<svg width="24" height="24" viewBox="0 0 24 24" fill="none" xmlns="http://www.w3.org/2000/svg">
<path fill-rule="evenodd" clip-rule="evenodd" d="M8.84163 18.5118C8.63406 18.4091 8.393 18.3901 8.17731 18.4745L6.80595 19.0111C6.51982 19.1231 6.19455 19.0551 5.97728 18.8378L5.22481 18.0853C5.00755 17.8681 4.93951 17.5428 5.05147 17.2567L5.59332 15.8719C5.67717 15.6577 5.65902 15.4182 5.55799 15.2115C5.42303 14.9353 5.30677 14.6523 5.2092 14.3643C5.13499 14.1453 4.97806 13.9619 4.7662 13.8692L3.40089 13.2719C3.11939 13.1487 2.9375 12.8706 2.9375 12.5633V11.4992C2.9375 11.1919 3.11939 10.9138 3.40089 10.7906L4.77554 10.1892C4.98644 10.097 5.14296 9.91473 5.21762 9.69697C5.31454 9.41434 5.4295 9.13652 5.56251 8.86531C5.66402 8.65833 5.6824 8.41843 5.59839 8.20375L5.05135 6.80576C4.93939 6.51963 5.00743 6.19435 5.22469 5.97709L5.97716 5.22462C6.19443 5.00735 6.5197 4.93931 6.80583 5.05128L8.20385 5.59833C8.41853 5.68234 8.65843 5.66396 8.86541 5.56246C9.13658 5.42946 9.41437 5.31451 9.69698 5.21761C9.91473 5.14294 10.097 4.98643 10.1892 4.77553L10.7906 3.40089C10.9138 3.11939 11.1919 2.9375 11.4992 2.9375H12.5633C12.8706 2.9375 13.1487 3.11939 13.2719 3.40089L13.8692 4.76617C13.9619 4.97803 14.1453 5.13496 14.3643 5.20918C14.6523 5.30675 14.9353 5.42302 15.2115 5.55798C15.4183 5.65902 15.6577 5.67717 15.872 5.59331L17.2566 5.05149C17.5428 4.93953 17.868 5.00757 18.0853 5.22483L18.8378 5.97731C19.055 6.19457 19.1231 6.51984 19.0111 6.80598L18.4745 8.17727C18.3901 8.39295 18.4091 8.63401 18.5118 8.84158C18.6515 9.12376 18.7716 9.41318 18.8721 9.7078C18.9466 9.92611 19.1033 10.1089 19.3146 10.2013L20.6616 10.7906C20.9431 10.9138 21.125 11.1919 21.125 11.4992V12.5633C21.125 12.8706 20.9431 13.1487 20.6616 13.2719L19.3239 13.8571C19.1116 13.95 18.9545 14.134 18.8805 14.3535C18.7794 14.6535 18.658 14.9481 18.5164 15.2352C18.4141 15.4426 18.3954 15.6832 18.4796 15.8985L19.011 17.2565C19.123 17.5426 19.0549 17.8679 18.8377 18.0851L18.0852 18.8376C17.8679 19.0549 17.5427 19.1229 17.2565 19.0109L15.8986 18.4796C15.6833 18.3953 15.4427 18.414 15.2353 18.5163C14.9481 18.658 14.6535 18.7794 14.3535 18.8805C14.134 18.9545 13.95 19.1116 13.8571 19.3239L13.2719 20.6616C13.1487 20.9431 12.8706 21.125 12.5633 21.125H11.4992C11.1919 21.125 10.9138 20.9431 10.7906 20.6616L10.2013 19.3146C10.1089 19.1033 9.9261 18.9466 9.70779 18.8721C9.41319 18.7716 9.12379 18.6515 8.84163 18.5118ZM12.1336 15.1991C13.9394 15.1991 15.4033 13.7353 15.4033 11.9295C15.4033 10.1237 13.9394 8.6598 12.1336 8.6598C10.3278 8.6598 8.86397 10.1237 8.86397 11.9295C8.86397 13.7353 10.3278 15.1991 12.1336 15.1991Z" fill="#64748B"/>
</svg>
