<svg width="16" height="22" viewBox="0 0 16 22" fill="none" xmlns="http://www.w3.org/2000/svg">
<path d="M4.999 3.57906H2.99822C2.46758 3.57906 1.95867 3.79571 1.58345 4.18136C1.20823 4.567 0.997437 5.09004 0.997437 5.63542V17.9736C0.997437 18.5189 1.20823 19.042 1.58345 19.4276C1.95867 19.8133 2.46758 20.0299 2.99822 20.0299H13.0021C13.5328 20.0299 14.0417 19.8133 14.4169 19.4276C14.7921 19.042 15.0029 18.5189 15.0029 17.9736V5.63542C15.0029 5.09004 14.7921 4.567 14.4169 4.18136C14.0417 3.79571 13.5328 3.57906 13.0021 3.57906H11.0013M4.999 3.57906C4.999 4.12444 5.20979 4.64749 5.58501 5.03313C5.96023 5.41877 6.46914 5.63542 6.99978 5.63542H9.00056C9.5312 5.63542 10.0401 5.41877 10.4153 5.03313C10.7905 4.64749 11.0013 4.12444 11.0013 3.57906M4.999 3.57906C4.999 3.03368 5.20979 2.51064 5.58501 2.125C5.96023 1.73936 6.46914 1.52271 6.99978 1.52271H9.00056C9.5312 1.52271 10.0401 1.73936 10.4153 2.125C10.7905 2.51064 11.0013 3.03368 11.0013 3.57906" stroke="#BFF007" stroke-width="2.00078"/>
</svg>
