<svg width="31" height="31" viewBox="0 0 31 31" fill="none" xmlns="http://www.w3.org/2000/svg">
<path d="M15.9704 0.0737305C18.0451 0.0737305 19.9946 0.467209 21.8189 1.25417C23.6432 2.04113 25.235 3.11425 26.5943 4.47354C27.9536 5.83283 29.0267 7.41867 29.8137 9.23106C30.6007 11.0434 30.9941 12.987 30.9941 15.0617C30.9941 17.1364 30.6007 19.0859 29.8137 20.9102C29.0267 22.7345 27.9536 24.3263 26.5943 25.6856C25.235 27.0449 23.6432 28.118 21.8189 28.905C19.9946 29.692 18.0451 30.0854 15.9704 30.0854C13.8957 30.0854 11.9521 29.692 10.1398 28.905C8.32736 28.118 6.74152 27.0449 5.38223 25.6856C4.02294 24.3263 2.94982 22.7345 2.16286 20.9102C1.3759 19.0859 0.982422 17.1364 0.982422 15.0617C0.982422 12.987 1.3759 11.0434 2.16286 9.23106C2.94982 7.41867 4.02294 5.83283 5.38223 4.47354C6.74152 3.11425 8.32736 2.04113 10.1398 1.25417C11.9521 0.467209 13.8957 0.0737305 15.9704 0.0737305ZM21.6222 6.61979H18.4386C17.8186 6.61979 17.2462 6.7271 16.7216 6.94173C16.1969 7.15635 15.7379 7.44252 15.3444 7.80023C14.9509 8.15793 14.6469 8.56334 14.4322 9.01643C14.2176 9.46953 14.1103 9.92263 14.1103 10.3757V12.2716H11.2844V15.9917H14.1103V23.5036H17.8662V15.9917H20.6564V12.2716H17.8662V11.3058C17.8662 11.0196 17.9795 10.7931 18.2061 10.6261C18.4326 10.4592 18.6294 10.3757 18.7963 10.3757H21.6222V6.61979Z" fill="#BFF007"/>
</svg>
