<svg width="31" height="31" viewBox="0 0 31 31" fill="none" xmlns="http://www.w3.org/2000/svg">
<path d="M14.8504 18.3964C14.3962 18.3964 13.9719 18.3128 13.5775 18.1454C13.183 17.9781 12.8364 17.745 12.5376 17.4462C12.2388 17.1474 12.0058 16.7948 11.8384 16.3885C11.6711 15.9821 11.5874 15.5518 11.5874 15.0976C11.5874 14.6435 11.6711 14.2192 11.8384 13.8247C12.0058 13.4303 12.2388 13.0837 12.5376 12.7849C12.8364 12.4861 13.183 12.253 13.5775 12.0857C13.9719 11.9184 14.3962 11.8347 14.8504 11.8347C15.7587 11.8347 16.5296 12.1514 17.1631 12.7849C17.7966 13.4184 18.1133 14.1893 18.1133 15.0976C18.1133 15.5518 18.0296 15.9821 17.8623 16.3885C17.695 16.7948 17.4619 17.1474 17.1631 17.4462C16.8643 17.745 16.5177 17.9781 16.1233 18.1454C15.7288 18.3128 15.3045 18.3964 14.8504 18.3964ZM20.0854 15.0976C20.0854 14.8825 20.0734 14.6614 20.0495 14.4343C20.0256 14.2072 19.9898 13.998 19.942 13.8068H21.4121V21.0139C21.4121 21.2052 21.3523 21.3605 21.2328 21.4801C21.1133 21.5996 20.9579 21.6593 20.7667 21.6593H8.93408C8.74284 21.6593 8.58747 21.5996 8.46794 21.4801C8.34842 21.3605 8.28866 21.2052 8.28866 21.0139V13.8068H9.75877C9.71096 13.998 9.67511 14.2072 9.6512 14.4343C9.6273 14.6614 9.61535 14.8825 9.61535 15.0976C9.61535 15.8148 9.75279 16.496 10.0277 17.1414C10.3026 17.7869 10.6731 18.3486 11.1392 18.8267C11.6054 19.3048 12.1611 19.6813 12.8066 19.9562C13.452 20.2311 14.1332 20.3685 14.8504 20.3685C15.5675 20.3685 16.2488 20.2311 16.8942 19.9562C17.5396 19.6813 18.0954 19.3048 18.5615 18.8267C19.0276 18.3486 19.3981 17.7869 19.673 17.1414C19.9479 16.496 20.0854 15.8148 20.0854 15.0976ZM14.9938 0.0738525C17.0735 0.0738525 19.0216 0.468272 20.8384 1.25711C22.6551 2.04595 24.2447 3.11566 25.6073 4.46625C26.9698 5.81684 28.0455 7.40049 28.8343 9.21721C29.6232 11.0339 30.0176 12.9821 30.0176 15.0618C30.0176 17.1414 29.6232 19.0896 28.8343 20.9064C28.0455 22.7231 26.9698 24.3127 25.6073 25.6752C24.2447 27.0378 22.6551 28.1135 20.8384 28.9023C19.0216 29.6911 17.0735 30.0856 14.9938 30.0856C12.9141 30.0856 10.9659 29.6911 9.14921 28.9023C7.33249 28.1135 5.74884 27.0378 4.39825 25.6752C3.04767 24.3127 1.97796 22.7231 1.18912 20.9064C0.400279 19.0896 0.00585938 17.1414 0.00585938 15.0618C0.00585938 12.9821 0.400279 11.0339 1.18912 9.21721C1.97796 7.40049 3.04767 5.81684 4.39825 4.46625C5.74884 3.11566 7.33249 2.04595 9.14921 1.25711C10.9659 0.468272 12.9141 0.0738525 14.9938 0.0738525ZM23.3842 8.53594C23.3842 7.98614 23.1929 7.52001 22.8105 7.13754C22.428 6.75507 21.9619 6.56384 21.4121 6.56384H8.28866C7.73887 6.56384 7.27273 6.75507 6.89027 7.13754C6.5078 7.52001 6.31657 7.98614 6.31657 8.53594V21.6593C6.31657 22.2091 6.5078 22.6753 6.89027 23.0577C7.27273 23.4402 7.73887 23.6314 8.28866 23.6314H21.4121C21.9619 23.6314 22.428 23.4402 22.8105 23.0577C23.1929 22.6753 23.3842 22.2091 23.3842 21.6593V8.53594ZM20.7667 8.53594C20.9579 8.53594 21.1133 8.60167 21.2328 8.73315C21.3523 8.86462 21.4121 9.02597 21.4121 9.21721V11.1893C21.4121 11.3805 21.3523 11.5359 21.2328 11.6554C21.1133 11.775 20.9579 11.8347 20.7667 11.8347H18.7946C18.6033 11.8347 18.442 11.775 18.3105 11.6554C18.179 11.5359 18.1133 11.3805 18.1133 11.1893V9.21721C18.1133 9.02597 18.179 8.86462 18.3105 8.73315C18.442 8.60167 18.6033 8.53594 18.7946 8.53594H20.7667Z" fill="#94A3B8"/>
</svg>
