<svg width="25" height="20" viewBox="0 0 25 20" fill="none" xmlns="http://www.w3.org/2000/svg">
<path d="M17.8147 18.9662H23.1293V16.8404C23.1292 16.1777 22.9227 15.5315 22.5384 14.9916C22.1542 14.4517 21.6112 14.0449 20.9851 13.8278C20.359 13.6108 19.6808 13.5941 19.0448 13.7803C18.4088 13.9664 17.8466 14.3461 17.4363 14.8666M17.8147 18.9662H7.18555M17.8147 18.9662V16.8404C17.8147 16.1431 17.6808 15.4767 17.4363 14.8666M17.4363 14.8666C17.0416 13.8801 16.3604 13.0346 15.4805 12.439C14.6007 11.8434 13.5626 11.5251 12.5001 11.5251C11.4377 11.5251 10.3995 11.8434 9.51971 12.439C8.63987 13.0346 7.95866 13.8801 7.56394 14.8666M7.18555 18.9662H1.87097V16.8404C1.87102 16.1777 2.07753 15.5315 2.46181 14.9916C2.84608 14.4517 3.38901 14.0449 4.01514 13.8278C4.64126 13.6108 5.31947 13.5941 5.95548 13.7803C6.59148 13.9664 7.15369 14.3461 7.56394 14.8666M7.18555 18.9662V16.8404C7.18555 16.1431 7.31947 15.4767 7.56394 14.8666M15.6889 5.14834C15.6889 5.99405 15.3529 6.80512 14.7549 7.40312C14.1569 8.00113 13.3458 8.33708 12.5001 8.33708C11.6544 8.33708 10.8433 8.00113 10.2453 7.40312C9.64733 6.80512 9.31138 5.99405 9.31138 5.14834C9.31138 4.30263 9.64733 3.49156 10.2453 2.89356C10.8433 2.29555 11.6544 1.95959 12.5001 1.95959C13.3458 1.95959 14.1569 2.29555 14.7549 2.89356C15.3529 3.49156 15.6889 4.30263 15.6889 5.14834ZM22.0664 8.33708C22.0664 8.90089 21.8424 9.4416 21.4437 9.84027C21.045 10.2389 20.5043 10.4629 19.9405 10.4629C19.3767 10.4629 18.836 10.2389 18.4373 9.84027C18.0387 9.4416 17.8147 8.90089 17.8147 8.33708C17.8147 7.77328 18.0387 7.23257 18.4373 6.8339C18.836 6.43523 19.3767 6.21125 19.9405 6.21125C20.5043 6.21125 21.045 6.43523 21.4437 6.8339C21.8424 7.23257 22.0664 7.77328 22.0664 8.33708ZM7.18555 8.33708C7.18555 8.90089 6.96158 9.4416 6.56291 9.84027C6.16424 10.2389 5.62352 10.4629 5.05972 10.4629C4.49591 10.4629 3.9552 10.2389 3.55653 9.84027C3.15786 9.4416 2.93389 8.90089 2.93389 8.33708C2.93389 7.77328 3.15786 7.23257 3.55653 6.8339C3.9552 6.43523 4.49591 6.21125 5.05972 6.21125C5.62352 6.21125 6.16424 6.43523 6.56291 6.8339C6.96158 7.23257 7.18555 7.77328 7.18555 8.33708Z" stroke="#BFF007" stroke-width="2.00078"/>
</svg>
