<svg width="30" height="31" viewBox="0 0 30 31" fill="none" xmlns="http://www.w3.org/2000/svg">
<path d="M14.9821 0.0737305C17.0617 0.0737305 19.0099 0.46815 20.8266 1.25699C22.6434 2.04583 24.233 3.11554 25.5955 4.46613C26.9581 5.81671 28.0338 7.40037 28.8226 9.21708C29.6114 11.0338 30.0059 12.982 30.0059 15.0617C30.0059 17.1413 29.6114 19.0895 28.8226 20.9062C28.0338 22.723 26.9581 24.3126 25.5955 25.6751C24.233 27.0377 22.6434 28.1133 20.8266 28.9022C19.0099 29.691 17.0617 30.0854 14.9821 30.0854C12.9024 30.0854 10.9542 29.691 9.1375 28.9022C7.32078 28.1133 5.73712 27.0377 4.38654 25.6751C3.03595 24.3126 1.96624 22.723 1.1774 20.9062C0.38856 19.0895 -0.00585938 17.1413 -0.00585938 15.0617C-0.00585938 12.982 0.38856 11.0338 1.1774 9.21708C1.96624 7.40037 3.03595 5.81671 4.38654 4.46613C5.73712 3.11554 7.32078 2.04583 9.1375 1.25699C10.9542 0.46815 12.9024 0.0737305 14.9821 0.0737305ZM22.4402 11.8346C23.1334 11.3087 23.743 10.6752 24.2689 9.93421C23.9342 10.0776 23.5936 10.1972 23.2469 10.2928C22.9003 10.3884 22.5358 10.4601 22.1533 10.5079C22.5358 10.2689 22.8705 9.97604 23.1573 9.62943C23.4442 9.28282 23.6473 8.90633 23.7669 8.49996C23.4083 8.69119 23.0378 8.8645 22.6553 9.01988C22.2729 9.17525 21.8784 9.2888 21.4721 9.36051C21.1374 9.02585 20.743 8.75095 20.2888 8.53582C19.8346 8.32068 19.3326 8.21311 18.7828 8.21311C18.2808 8.21311 17.8087 8.30873 17.3665 8.49996C16.9243 8.69119 16.5418 8.95414 16.2191 9.2888C15.8964 9.62346 15.6394 10.0119 15.4482 10.4541C15.257 10.8964 15.1614 11.3685 15.1614 11.8705C15.1614 12.0139 15.1673 12.1573 15.1793 12.3007C15.1912 12.4442 15.2092 12.5756 15.2331 12.6951C13.7271 12.6234 12.3287 12.2529 11.0379 11.5836C9.74705 10.9143 8.64746 10.0179 7.7391 8.89438C7.40444 9.44417 7.23711 10.0537 7.23711 10.723C7.23711 11.3446 7.38651 11.9242 7.68532 12.4621C7.98412 12.9999 8.37256 13.4362 8.85065 13.7708C8.22914 13.723 7.67934 13.5676 7.20126 13.3047V13.3406C7.20126 14.2489 7.48213 15.0318 8.04388 15.6891C8.60563 16.3465 9.30482 16.7589 10.1415 16.9262C9.97414 16.974 9.81279 17.0099 9.65741 17.0338C9.50203 17.0577 9.34068 17.0696 9.17335 17.0696C9.05383 17.0696 8.94029 17.0636 8.83272 17.0517C8.72515 17.0397 8.6116 17.0218 8.49208 16.9979C8.73112 17.715 9.15542 18.3126 9.76498 18.7907C10.3745 19.2688 11.0857 19.5078 11.8984 19.5078C11.2769 20.0098 10.5777 20.3983 9.80084 20.6732C9.02395 20.9481 8.21718 21.0855 7.38054 21.0855C7.21321 21.0855 7.05783 21.0795 6.9144 21.0676C6.77098 21.0556 6.62755 21.0377 6.48413 21.0138C7.29687 21.5397 8.17535 21.9461 9.11957 22.2329C10.0638 22.5198 11.0498 22.6632 12.0777 22.6632C13.751 22.6632 15.2331 22.3465 16.5239 21.713C17.8147 21.0795 18.8964 20.2668 19.7689 19.2748C20.6414 18.2828 21.3047 17.1712 21.7589 15.9401C22.2131 14.7091 22.4402 13.4959 22.4402 12.3007V11.8346Z" fill="#94A3B8"/>
</svg>
